<svg xmlns="http://www.w3.org/2000/svg" width="22" height="22" viewBox="0 0 22 22">
    <g fill="none" fill-rule="evenodd">
        <g fill="#000" fill-rule="nonzero">
            <g>
                <path d="M9.024 21.128c-4.114-.823-7.33-4.038-8.152-8.151-.047-.238-.278-.392-.515-.346-.238.046-.394.275-.349.513.893 4.465 4.383 7.955 8.848 8.848.155.03.314-.023.418-.142.104-.12.136-.285.084-.434-.052-.149-.18-.259-.334-.288zM21.644 12.628c-.239-.046-.47.11-.516.349-.823 4.113-4.038 7.328-8.152 8.151-.155.029-.282.139-.334.288-.052.15-.02.315.084.434.104.119.263.173.418.142 4.465-.893 7.955-4.383 8.848-8.848.022-.114-.002-.233-.067-.33-.066-.097-.167-.163-.281-.186zM12.976.872c4.114.823 7.33 4.038 8.152 8.151.048.238.278.392.515.346.238-.046.393-.275.349-.513C21.099 4.39 17.609.9 13.144.008c-.155-.03-.314.023-.418.142-.104.12-.136.285-.084.434.052.149.18.259.334.288zM.356 9.372c.115.022.234-.002.33-.067.097-.066.164-.167.186-.282C1.695 4.91 4.91 1.695 9.024.872c.155-.029.282-.139.334-.288.052-.15.02-.315-.084-.434-.104-.119-.263-.173-.418-.142C4.391.901.901 4.391.008 8.856c-.022.114.002.233.067.33.066.097.167.163.281.186zM18.7 11c0-3.114-1.876-5.922-4.753-7.114-2.878-1.192-6.19-.533-8.392 1.67-2.202 2.201-2.86 5.513-1.669 8.39 1.192 2.878 4 4.754 7.114 4.754 4.25-.005 7.695-3.45 7.7-7.7zM11 17.82c-3.767 0-6.82-3.053-6.82-6.82 0-3.767 3.053-6.82 6.82-6.82 3.767 0 6.82 3.053 6.82 6.82 0 3.767-3.053 6.82-6.82 6.82z" transform="translate(-338 -116) translate(338 116)"/>
                <path d="M11 6.16c-2.673 0-4.84 2.167-4.84 4.84s2.167 4.84 4.84 4.84 4.84-2.167 4.84-4.84c-.003-2.672-2.168-4.837-4.84-4.84zm0 8.8c-1.602 0-3.046-.965-3.659-2.445-.612-1.48-.274-3.183.859-4.315 1.132-1.133 2.836-1.471 4.315-.859 1.48.613 2.445 2.057 2.445 3.659 0 2.187-1.773 3.96-3.96 3.96z" transform="translate(-338 -116) translate(338 116)"/>
                <path d="M12.32 10.989V11c0 .729-.591 1.32-1.32 1.32-.729 0-1.32-.591-1.32-1.32 0-.729.591-1.32 1.32-1.32.045 0 .089.002.133.007.007-.04.016-.08.027-.118.095-.284.304-.515.576-.64-.957-.344-2.025.009-2.59.854-.564.846-.48 1.967.206 2.719.685.752 1.793.94 2.688.456.894-.484 1.344-1.515 1.09-2.5-.172.295-.472.491-.81.53z" transform="translate(-338 -116) translate(338 116)"/>
            </g>
        </g>
    </g>
</svg>
